<svg id="Objects" xmlns="http://www.w3.org/2000/svg" xmlns:xlink="http://www.w3.org/1999/xlink" viewBox="0 0 126.623 112.82"><defs><linearGradient id="Degradado_sin_nombre_42" x1="249.915" y1="272.175" x2="249.915" y2="138.298" gradientUnits="userSpaceOnUse"><stop offset="0" stop-color="#480672"/><stop offset="0.492" stop-color="#ea48a6"/><stop offset="0.588" stop-color="#eb4ca4"/><stop offset="0.683" stop-color="#ed589f"/><stop offset="0.777" stop-color="#f06b95"/><stop offset="0.87" stop-color="#f68788"/><stop offset="0.962" stop-color="#fcaa78"/><stop offset="1" stop-color="#ffbb70"/></linearGradient></defs><path d="M306.892,183.538a6.309,6.309,0,0,0-1.253.125l-22.8-39.491a6.332,6.332,0,1,0-10.682-5.617H227.1a6.332,6.332,0,1,0-10.231,6.022l-22.579,39.108a6.334,6.334,0,1,0,0,12.374L216.764,235a6.332,6.332,0,1,0,10.282,6.194h20.013a3.208,3.208,0,0,0,5.818,0h19.329a6.332,6.332,0,1,0,10.726-5.777l22.707-39.331a6.334,6.334,0,1,0,1.253-12.543ZM279.22,174.17l22.073,12.743a6.3,6.3,0,0,0-.71,2.445H279.22Zm21.363,16.216a6.3,6.3,0,0,0,.71,2.445L281.07,204.506a3.208,3.208,0,0,0-1.85-1.129V190.386ZM275.36,206.538a3.2,3.2,0,0,0,.218,1.14l-11.053,6.381-13.667-23.673h27.335v12.966A3.215,3.215,0,0,0,275.36,206.538Zm-53.616-.37V192.931a3.214,3.214,0,0,0,2.794-2.545h24.541L236.02,213a1.819,1.819,0,0,0-1.685.434Zm15.174,7.335,13.05-22.6,13.668,23.673-13.668,7.891-12.549-7.245a1.83,1.83,0,0,0,.044-.394A1.872,1.872,0,0,0,236.918,213.5Zm11.8-55.5a1.849,1.849,0,0,0,2.5,0l10.041,5.8a3.182,3.182,0,0,0,.956,3.829l-12.249,21.215L236.3,165.172ZM264.2,168.333A3.213,3.213,0,0,0,266.8,167l11.389,6.576v15.781H250.858l12.256-21.228A3.181,3.181,0,0,0,264.2,168.333Zm13.989-22.341v26.4l-10.93-6.31a3.166,3.166,0,0,0,.166-.972,3.2,3.2,0,0,0-1.154-2.454l9.857-17.073A6.294,6.294,0,0,0,278.193,145.992Zm-2.99-.855-9.8,16.981a3.183,3.183,0,0,0-3.571.824l-10.066-5.811a1.865,1.865,0,0,0,.08-.514,1.823,1.823,0,0,0-.043-.394L273.5,143.7A6.35,6.35,0,0,0,275.2,145.137Zm-48.32-3.5h45.486a6.341,6.341,0,0,0,.545,1.21l-21.6,12.47a1.864,1.864,0,0,0-2.695,0L226.5,142.547A6.332,6.332,0,0,0,226.883,141.637Zm-.923,1.783,22.176,12.8a1.887,1.887,0,0,0-.043.394,1.866,1.866,0,0,0,.081.514l-12.387,7.151-11.239-19.467A6.377,6.377,0,0,0,225.96,143.42Zm-4.216,2.514a6.278,6.278,0,0,0,1.922-.591L234.9,164.8l-13.153,7.594Zm13.667,19.751,13.668,23.673H224.564a3.2,3.2,0,0,0-2.82-2.8V173.577Zm-17.219,23.673H199.246a6.277,6.277,0,0,0-.686-2.4l22.156-12.792v12.418A3.215,3.215,0,0,0,218.192,189.358Zm1.475-43.472a6.452,6.452,0,0,0,1.049.109v26.988l-22.7,13.109a6.37,6.37,0,0,0-.963-1.033Zm1.049,87.606a6.407,6.407,0,0,0-1.183.135l-22.484-38.942a6.37,6.37,0,0,0,.963-1.033l22.7,13.109Zm-22.156-40.71a6.282,6.282,0,0,0,.686-2.4h18.972a3.227,3.227,0,0,0,2.5,2.513v12.675Zm23.184,40.771v-26.2l12.049,6.956a1.812,1.812,0,0,0,.435,1.8L223.782,234.2A6.265,6.265,0,0,0,221.744,233.553Zm2.907,1.2,10.461-18.119a1.824,1.824,0,0,0,1.823-.507l12.006,6.932-22.847,13.191A6.332,6.332,0,0,0,224.651,234.75Zm47.642,3.357h-19.6a3.208,3.208,0,0,0-5.447,0H226.958a6.313,6.313,0,0,0-.359-.966l23.369-13.492L272.8,236.832A6.343,6.343,0,0,0,272.293,238.107Zm1.071-2.136L251,223.056l13.155-7.595,10.943,18.955A6.357,6.357,0,0,0,273.364,235.971Zm2.646-2.021-10.971-19,11.056-6.383a3.2,3.2,0,0,0,2.1,1.158v23.771A6.311,6.311,0,0,0,276.01,233.95Zm4.3-.165a6.2,6.2,0,0,0-1.093-.239V209.7a3.226,3.226,0,0,0,2.59-3.161,3.187,3.187,0,0,0-.22-1.146l20.26-11.7a6.352,6.352,0,0,0,1,1.053Zm21.537-47.736-22.63-13.066V145.941a6.2,6.2,0,0,0,.966-.2L302.85,185A6.352,6.352,0,0,0,301.85,186.049Z" transform="translate(-186.603 -133.333)" fill="url(#Degradado_sin_nombre_42)"/></svg>